<?xml version="1.0" encoding="UTF-8"?>
<svg width="800px" height="320px" viewBox="0 0 800 320" version="1.1" xmlns="http://www.w3.org/2000/svg" xmlns:xlink="http://www.w3.org/1999/xlink">
    <!-- Generator: Sketch 53.2 (72643) - https://sketchapp.com -->
    <title>Compact Logo</title>
    <desc>Created with Sketch.</desc>
    <g id="Compact-Logo" stroke="none" stroke-width="1" fill="none" fill-rule="evenodd">
        <g id="Group" transform="translate(1.000000, 30.000000)" fill="#000000">
            <path d="M655.235443,248.093671 C655.235443,256.113924 662.162025,261.582278 669.817722,261.582278 C676.01519,261.582278 680.75443,257.572152 683.670886,251.374684 L793.767089,30.0886076 C795.95443,26.078481 797.777215,21.3392405 797.777215,17.3291139 C797.777215,9.30886076 791.944304,4.56962025 783.924051,4.56962025 L634.455696,4.56962025 C627.164557,4.56962025 620.967089,10.4025316 620.967089,17.6936709 C620.967089,25.3493671 627.164557,30.8177215 634.455696,30.8177215 L763.144304,30.8177215 L657.422785,239.344304 C656.329114,241.896203 655.235443,245.906329 655.235443,248.093671 L655.235443,248.093671 Z M129.787342,264.134177 C207.437975,264.134177 260.298734,202.524051 260.298734,132.164557 L260.298734,131.435443 C260.298734,61.0759494 208.167089,0.194936709 130.516456,0.194936709 C52.8658228,0.194936709 0.00506329114,61.8050633 0.00506329114,132.164557 L0.00506329114,132.893671 C0.00506329114,203.253165 52.1367089,264.134177 129.787342,264.134177 L129.787342,264.134177 L129.787342,264.134177 Z M130.516456,237.521519 C72.1873418,237.521519 29.8987342,190.129114 29.8987342,132.164557 L29.8987342,131.435443 C29.8987342,73.4708861 71.4582278,26.8075949 129.787342,26.8075949 C188.116456,26.8075949 230.405063,74.2 230.405063,132.164557 L230.405063,132.893671 C230.405063,190.858228 188.84557,237.521519 130.516456,237.521519 L130.516456,237.521519 L130.516456,237.521519 Z M321.179747,247.364557 C321.179747,255.38481 327.377215,261.582278 335.032911,261.582278 C343.053165,261.582278 349.250633,255.38481 349.250633,247.364557 L349.250633,57.0658228 L349.250633,17.6936714 C349.250633,10.470283 345.579608,3.47594937 335.397468,3.47594937 C325.215329,3.47594937 321.179747,10.0379747 321.179747,17.6936709 L321.179747,247.364557 L321.179747,247.364557 Z M531.306329,247.364557 C531.306329,255.38481 537.503797,261.582278 545.159494,261.582278 C553.179747,261.582278 559.377215,255.38481 559.377215,247.364557 L559.377215,57.0658228 L559.377215,17.6936714 C559.377215,10.470283 555.70619,3.47594937 545.524051,3.47594937 C535.341911,3.47594937 531.306329,10.0379747 531.306329,17.6936709 L531.306329,247.364557 L531.306329,247.364557 Z M427.508861,247.364557 C427.508861,255.38481 433.706329,261.582278 441.362025,261.582278 C449.382278,261.582278 455.579747,255.38481 455.579747,247.364557 L455.579747,101.237975 C455.579747,94.0145868 451.908722,87.0202532 441.726582,87.0202532 C431.544443,87.0202532 427.508861,93.5822785 427.508861,101.237975 L427.508861,247.364557 L427.508861,247.364557 Z" id="OMSENSE"></path>
        </g>
    </g>
</svg>